# File produced by Open Asset Import Library (http://www.assimp.sf.net)
# (assimp v5.0.1588609223)

mtllib result.mtl

# 64 vertex positions
v  1.2233061 0.73303586 0.10192088
v  -0.18187664 0.51561761 0.10192088
v  1.0463854 0.44873875 0.10192088
v  -0.061765719 0.63572854 0.10192088
v  1.0585213 1.7560154 0.10192088
v  1.3206168 1.0534363 0.10192088
v  1.3316861 1.3881052 0.10192088
v  1.2557595 1.7142354 0.10192088
v  1.0980114 2.0096018 0.10192088
v  0.94290042 1.8716363 0.10192088
v  -0.82297713 1.39694 0.10192088
v  -0.17738652 0.75134933 0.10192088
v  -1.2103764 1.4721845 0.10192088
v  -1.1130657 1.792585 0.10192088
v  -0.93614495 2.0768821 0.10192088
v  0.86919188 2.2540755 0.10192088
v  -0.69167113 2.3057015 0.10192088
v  0.58489478 2.4309962 0.10192088
v  -0.39630476 2.4634497 0.10192088
v  0.26449436 2.528307 0.10192088
v  -0.070174515 2.5393763 0.10192088
v  0.50654519 0.062171094 0.10192088
v  -0.15425396 -0.0026862267 0.10192088
v  0.18041493 -0.013755496 0.10192088
v  -0.47465435 0.094624549 0.10192088
v  0.80191159 0.21991926 0.10192088
v  -0.75895149 0.27154526 0.10192088
v  -0.98777092 0.51601905 0.10192088
v  -0.29749745 0.6312384 0.10192088
v  -1.1455191 0.81138545 0.10192088
v  -0.94308805 1.276829 0.10192088
v  -1.2214457 1.1375157 0.10192088
v  -0.17738652 0.75134933 -0.13779162
v  -0.82297713 1.39694 -0.13779162
v  -0.94308805 1.276829 -0.13779162
v  -0.29749745 0.6312384 -0.13779162
v  -0.18187664 0.51561761 -0.13779162
v  -0.061765719 0.63572854 -0.13779162
v  -0.15425396 -0.0026862267 -0.13779162
v  0.50654519 0.062171094 -0.13779162
v  0.18041493 -0.013755496 -0.13779162
v  -0.47465435 0.094624549 -0.13779162
v  0.80191159 0.21991926 -0.13779162
v  -0.75895149 0.27154526 -0.13779162
v  1.0463854 0.44873875 -0.13779162
v  -0.98777092 0.51601905 -0.13779162
v  -1.1455191 0.81138545 -0.13779162
v  -1.2214457 1.1375157 -0.13779162
v  -1.2103764 1.4721845 -0.13779162
v  0.94290042 1.8716363 -0.13779162
v  -1.1130657 1.792585 -0.13779162
v  -0.93614495 2.0768821 -0.13779162
v  1.0980114 2.0096018 -0.13779162
v  0.86919188 2.2540755 -0.13779162
v  -0.69167113 2.3057015 -0.13779162
v  0.58489478 2.4309962 -0.13779162
v  -0.39630476 2.4634497 -0.13779162
v  0.26449436 2.528307 -0.13779162
v  -0.070174515 2.5393763 -0.13779162
v  1.2233061 0.73303586 -0.13779162
v  1.0585213 1.7560154 -0.13779162
v  1.3206168 1.0534363 -0.13779162
v  1.3316861 1.3881052 -0.13779162
v  1.2557595 1.7142354 -0.13779162

# 0 UV coordinates

# 34 vertex normals
vn -1.2283935e-15 -2.2429223e-15 1
vn -0.70710677 -0.70710677 -1.3145175e-15
vn 0.70710677 -0.70710677 -3.7359013e-17
vn 0.70710677 0.70710677 8.0682149e-16
vn 0.70710677 0.70710677 1.0465668e-15
vn -0.70710677 0.70710677 3.4925127e-15
vn 1.2505036e-15 2.2328953e-15 -1
vn 0.98658818 -0.16322926 4.3673898e-16
vn 0.9952178 0.097680457 6.771642e-16
vn 0.7727958 -0.63465476 -1.8576532e-15
vn 0.91072416 -0.41301516 -7.9318272e-16
vn 0.93602502 0.35193339 -6.7859309e-16
vn 0.81304371 0.58220267 -1.5315628e-16
vn 0.58220267 -0.81304371 -3.5478631e-15
vn 0.63465476 0.7727958 2.3829288e-15
vn 0.35193339 -0.93602502 -4.1065881e-15
vn 0.097680457 -0.9952178 -4.2370752e-15
vn 0.41301516 0.91072416 4.3010639e-15
vn 0.16322926 0.98658818 4.0445781e-15
vn -0.097680457 0.9952178 2.2607341e-15
vn -0.35193339 0.93602502 1.5222392e-15
vn -0.58220267 0.81304371 -3.278189e-16
vn -0.7727958 0.63465476 -2.4293566e-15
vn -0.91072416 0.41301516 -1.0715092e-15
vn -0.98658818 0.16322926 -9.917786e-16
vn -0.9952178 -0.097680457 -3.0879922e-15
vn -0.93602502 -0.35193339 -2.9650712e-15
vn -0.81304371 -0.58220267 -1.9233891e-15
vn -0.63465476 -0.7727958 -2.0843058e-15
vn -0.41301516 -0.91072416 -3.7796448e-15
vn -0.16322926 -0.98658818 -4.9558077e-15
vn -0.70710677 0.70710677 5.5373995e-15
vn 0.70710677 -0.70710677 -1.8142952e-15
vn -0.70710677 -0.70710677 -3.3311991e-15

# Mesh 'meshes_0' with 128 faces
g meshes_0
usemtl default material
f  1//1 2//1 3//1
f  2//1 1//1 4//1
f  4//1 1//1 5//1
f  5//1 1//1 6//1
f  5//1 6//1 7//1
f  5//1 7//1 8//1
f  5//1 8//1 9//1
f  5//1 9//1 10//1
f  10//1 11//1 12//1
f  11//1 10//1 13//1
f  13//1 10//1 14//1
f  14//1 10//1 15//1
f  15//1 10//1 9//1
f  15//1 9//1 16//1
f  15//1 16//1 17//1
f  17//1 16//1 18//1
f  17//1 18//1 19//1
f  19//1 18//1 20//1
f  19//1 20//1 21//1
f  22//1 23//1 24//1
f  23//1 22//1 25//1
f  25//1 22//1 26//1
f  25//1 26//1 27//1
f  27//1 26//1 3//1
f  27//1 3//1 28//1
f  28//1 3//1 2//1
f  28//1 2//1 29//1
f  28//1 29//1 30//1
f  30//1 29//1 31//1
f  30//1 31//1 32//1
f  32//1 31//1 13//1
f  13//1 31//1 11//1
f  33//2 11//2 34//2
f  11//2 33//2 12//2
f  35//3 11//3 31//3
f  11//3 35//3 34//3
f  29//4 35//4 31//4
f  35//4 29//4 36//4
f  2//5 36//5 29//5
f  36//5 2//5 37//5
f  4//6 37//6 2//6
f  37//6 4//6 38//6
f  39//7 40//7 41//7
f  40//7 39//7 42//7
f  40//7 42//7 43//7
f  43//7 42//7 44//7
f  43//7 44//7 45//7
f  45//7 44//7 46//7
f  45//7 46//7 37//7
f  37//7 46//7 36//7
f  36//7 46//7 47//7
f  36//7 47//7 35//7
f  35//7 47//7 48//7
f  35//7 48//7 49//7
f  35//7 49//7 34//7
f  34//7 50//7 33//7
f  50//7 34//7 49//7
f  50//7 49//7 51//7
f  50//7 51//7 52//7
f  50//7 52//7 53//7
f  53//7 52//7 54//7
f  54//7 52//7 55//7
f  54//7 55//7 56//7
f  56//7 55//7 57//7
f  56//7 57//7 58//7
f  58//7 57//7 59//7
f  37//7 60//7 45//7
f  60//7 37//7 38//7
f  60//7 38//7 61//7
f  60//7 61//7 62//7
f  62//7 61//7 63//7
f  63//7 61//7 64//7
f  64//7 61//7 53//7
f  53//7 61//7 50//7
f  6//8 63//9 7//9
f  63//9 6//8 62//8
f  3//10 60//11 1//11
f  60//11 3//10 45//10
f  1//11 62//8 6//8
f  62//8 1//11 60//11
f  7//9 64//12 8//12
f  64//12 7//9 63//9
f  8//12 53//13 9//13
f  53//13 8//12 64//12
f  45//10 26//14 43//14
f  26//14 45//10 3//10
f  53//13 16//15 9//13
f  16//15 53//13 54//15
f  43//14 22//16 40//16
f  22//16 43//14 26//14
f  40//16 24//17 41//17
f  24//17 40//16 22//16
f  16//15 56//18 18//18
f  56//18 16//15 54//15
f  18//18 58//19 20//19
f  58//19 18//18 56//18
f  20//19 59//20 21//20
f  59//20 20//19 58//19
f  21//20 57//21 19//21
f  57//21 21//20 59//20
f  19//21 55//22 17//22
f  55//22 19//21 57//21
f  17//22 52//23 15//23
f  52//23 17//22 55//22
f  52//23 14//24 15//23
f  14//24 52//23 51//24
f  51//24 13//25 14//24
f  13//25 51//24 49//25
f  49//25 32//26 13//25
f  32//26 49//25 48//26
f  48//26 30//27 32//26
f  30//27 48//26 47//27
f  30//27 46//28 28//28
f  46//28 30//27 47//27
f  46//28 27//29 28//28
f  27//29 46//28 44//29
f  42//30 27//29 44//29
f  27//29 42//30 25//30
f  39//31 25//30 42//30
f  25//30 39//31 23//31
f  41//17 23//31 39//31
f  23//31 41//17 24//17
f  61//32 4//32 5//32
f  4//32 61//32 38//32
f  50//33 12//33 33//33
f  12//33 50//33 10//33
f  61//34 10//34 50//34
f  10//34 61//34 5//34

